<mxfile host="Electron" modified="2024-07-20T19:35:12.594Z" agent="Mozilla/5.0 (Macintosh; Intel Mac OS X 10_15_7) AppleWebKit/537.36 (KHTML, like Gecko) draw.io/24.1.0 Chrome/120.0.6099.109 Electron/28.1.0 Safari/537.36" etag="Iu68ppveiAH5aTZ0uKDF" version="24.1.0" type="device" pages="2">
  <diagram name="Page-1" id="bV5QdRkWDLihCbSvr75_">
    <mxGraphModel dx="2128" dy="1405" grid="1" gridSize="10" guides="1" tooltips="1" connect="1" arrows="1" fold="1" page="0" pageScale="1" pageWidth="850" pageHeight="1100" background="#001933" math="0" shadow="0">
      <root>
        <mxCell id="0" />
        <mxCell id="1" parent="0" />
        <mxCell id="88elJL9hMHFvYUew_hes-5" value="" style="edgeStyle=none;curved=1;rounded=0;sketch=1;hachureGap=4;jiggle=2;curveFitting=1;orthogonalLoop=1;jettySize=auto;html=1;fontFamily=Architects Daughter;fontSource=https%3A%2F%2Ffonts.googleapis.com%2Fcss%3Ffamily%3DArchitects%2BDaughter;fontSize=16;startSize=14;endArrow=open;endSize=14;sourcePerimeterSpacing=8;targetPerimeterSpacing=8;" parent="1" source="88elJL9hMHFvYUew_hes-1" target="88elJL9hMHFvYUew_hes-4" edge="1">
          <mxGeometry relative="1" as="geometry" />
        </mxCell>
        <mxCell id="88elJL9hMHFvYUew_hes-1" value="rawquery" style="text;strokeColor=none;fillColor=none;html=1;align=center;verticalAlign=middle;whiteSpace=wrap;rounded=0;fontSize=20;fontFamily=Architects Daughter;fontSource=https%3A%2F%2Ffonts.googleapis.com%2Fcss%3Ffamily%3DArchitects%2BDaughter;" parent="1" vertex="1">
          <mxGeometry x="-230" y="-40" width="150" height="30" as="geometry" />
        </mxCell>
        <mxCell id="88elJL9hMHFvYUew_hes-9" value="" style="edgeStyle=none;curved=1;rounded=0;sketch=1;hachureGap=4;jiggle=2;curveFitting=1;orthogonalLoop=1;jettySize=auto;html=1;fontFamily=Architects Daughter;fontSource=https%3A%2F%2Ffonts.googleapis.com%2Fcss%3Ffamily%3DArchitects%2BDaughter;fontSize=16;startSize=14;endArrow=open;endSize=14;sourcePerimeterSpacing=8;targetPerimeterSpacing=8;" parent="1" source="88elJL9hMHFvYUew_hes-4" target="88elJL9hMHFvYUew_hes-8" edge="1">
          <mxGeometry relative="1" as="geometry" />
        </mxCell>
        <mxCell id="88elJL9hMHFvYUew_hes-4" value="next word" style="whiteSpace=wrap;html=1;sketch=1;hachureGap=4;jiggle=2;curveFitting=1;fontFamily=Architects Daughter;fontSource=https%3A%2F%2Ffonts.googleapis.com%2Fcss%3Ffamily%3DArchitects%2BDaughter;" parent="1" vertex="1">
          <mxGeometry x="55" y="-55" width="120" height="60" as="geometry" />
        </mxCell>
        <mxCell id="88elJL9hMHFvYUew_hes-13" value="" style="edgeStyle=none;curved=1;rounded=0;sketch=1;hachureGap=4;jiggle=2;curveFitting=1;orthogonalLoop=1;jettySize=auto;html=1;fontFamily=Architects Daughter;fontSource=https%3A%2F%2Ffonts.googleapis.com%2Fcss%3Ffamily%3DArchitects%2BDaughter;fontSize=16;startSize=14;endArrow=open;endSize=14;sourcePerimeterSpacing=8;targetPerimeterSpacing=8;" parent="1" source="88elJL9hMHFvYUew_hes-6" target="88elJL9hMHFvYUew_hes-12" edge="1">
          <mxGeometry relative="1" as="geometry" />
        </mxCell>
        <mxCell id="88elJL9hMHFvYUew_hes-14" value="no" style="edgeLabel;html=1;align=center;verticalAlign=middle;resizable=0;points=[];fontSize=16;sketch=1;hachureGap=4;jiggle=2;curveFitting=1;fontFamily=Architects Daughter;fontSource=https%3A%2F%2Ffonts.googleapis.com%2Fcss%3Ffamily%3DArchitects%2BDaughter;" parent="88elJL9hMHFvYUew_hes-13" vertex="1" connectable="0">
          <mxGeometry x="-0.2019" y="-2" relative="1" as="geometry">
            <mxPoint as="offset" />
          </mxGeometry>
        </mxCell>
        <mxCell id="88elJL9hMHFvYUew_hes-16" value="" style="edgeStyle=none;curved=1;rounded=0;sketch=1;hachureGap=4;jiggle=2;curveFitting=1;orthogonalLoop=1;jettySize=auto;html=1;fontFamily=Architects Daughter;fontSource=https%3A%2F%2Ffonts.googleapis.com%2Fcss%3Ffamily%3DArchitects%2BDaughter;fontSize=16;startSize=14;endArrow=open;endSize=14;sourcePerimeterSpacing=8;targetPerimeterSpacing=8;" parent="1" source="88elJL9hMHFvYUew_hes-6" target="88elJL9hMHFvYUew_hes-15" edge="1">
          <mxGeometry relative="1" as="geometry" />
        </mxCell>
        <mxCell id="88elJL9hMHFvYUew_hes-17" value="yes" style="edgeLabel;html=1;align=center;verticalAlign=middle;resizable=0;points=[];fontSize=16;sketch=1;hachureGap=4;jiggle=2;curveFitting=1;fontFamily=Architects Daughter;fontSource=https%3A%2F%2Ffonts.googleapis.com%2Fcss%3Ffamily%3DArchitects%2BDaughter;" parent="88elJL9hMHFvYUew_hes-16" vertex="1" connectable="0">
          <mxGeometry x="-0.064" y="1" relative="1" as="geometry">
            <mxPoint as="offset" />
          </mxGeometry>
        </mxCell>
        <mxCell id="88elJL9hMHFvYUew_hes-6" value="is ql command" style="rhombus;whiteSpace=wrap;html=1;fontFamily=Architects Daughter;sketch=1;hachureGap=4;jiggle=2;curveFitting=1;fontSource=https%3A%2F%2Ffonts.googleapis.com%2Fcss%3Ffamily%3DArchitects%2BDaughter;" parent="1" vertex="1">
          <mxGeometry x="55" y="310" width="117.5" height="130" as="geometry" />
        </mxCell>
        <mxCell id="88elJL9hMHFvYUew_hes-11" style="edgeStyle=none;curved=1;rounded=0;sketch=1;hachureGap=4;jiggle=2;curveFitting=1;orthogonalLoop=1;jettySize=auto;html=1;exitX=0.5;exitY=1;exitDx=0;exitDy=0;entryX=0.5;entryY=0;entryDx=0;entryDy=0;fontFamily=Architects Daughter;fontSource=https%3A%2F%2Ffonts.googleapis.com%2Fcss%3Ffamily%3DArchitects%2BDaughter;fontSize=16;startSize=14;endArrow=open;endSize=14;sourcePerimeterSpacing=8;targetPerimeterSpacing=8;" parent="1" source="88elJL9hMHFvYUew_hes-8" target="88elJL9hMHFvYUew_hes-6" edge="1">
          <mxGeometry relative="1" as="geometry" />
        </mxCell>
        <mxCell id="88elJL9hMHFvYUew_hes-8" value="resolve&lt;div&gt;command&lt;/div&gt;" style="shape=process;whiteSpace=wrap;html=1;backgroundOutline=1;fontFamily=Architects Daughter;sketch=1;hachureGap=4;jiggle=2;curveFitting=1;fontSource=https%3A%2F%2Ffonts.googleapis.com%2Fcss%3Ffamily%3DArchitects%2BDaughter;" parent="1" vertex="1">
          <mxGeometry x="55" y="125" width="120" height="60" as="geometry" />
        </mxCell>
        <mxCell id="88elJL9hMHFvYUew_hes-12" value="error" style="shape=tape;whiteSpace=wrap;html=1;fontFamily=Architects Daughter;sketch=1;hachureGap=4;jiggle=2;curveFitting=1;fontSource=https%3A%2F%2Ffonts.googleapis.com%2Fcss%3Ffamily%3DArchitects%2BDaughter;" parent="1" vertex="1">
          <mxGeometry x="-183.75" y="325" width="120" height="100" as="geometry" />
        </mxCell>
        <mxCell id="88elJL9hMHFvYUew_hes-19" value="" style="edgeStyle=none;curved=1;rounded=0;sketch=1;hachureGap=4;jiggle=2;curveFitting=1;orthogonalLoop=1;jettySize=auto;html=1;fontFamily=Architects Daughter;fontSource=https%3A%2F%2Ffonts.googleapis.com%2Fcss%3Ffamily%3DArchitects%2BDaughter;fontSize=16;startSize=14;endArrow=open;endSize=14;sourcePerimeterSpacing=8;targetPerimeterSpacing=8;" parent="1" source="88elJL9hMHFvYUew_hes-15" target="88elJL9hMHFvYUew_hes-18" edge="1">
          <mxGeometry relative="1" as="geometry" />
        </mxCell>
        <mxCell id="88elJL9hMHFvYUew_hes-15" value="solve command" style="shape=step;perimeter=stepPerimeter;whiteSpace=wrap;html=1;fixedSize=1;fontFamily=Architects Daughter;sketch=1;hachureGap=4;jiggle=2;curveFitting=1;fontSource=https%3A%2F%2Ffonts.googleapis.com%2Fcss%3Ffamily%3DArchitects%2BDaughter;" parent="1" vertex="1">
          <mxGeometry x="31.88" y="590" width="158.12" height="50" as="geometry" />
        </mxCell>
        <mxCell id="88elJL9hMHFvYUew_hes-21" value="" style="edgeStyle=none;curved=1;rounded=0;sketch=1;hachureGap=4;jiggle=2;curveFitting=1;orthogonalLoop=1;jettySize=auto;html=1;fontFamily=Architects Daughter;fontSource=https%3A%2F%2Ffonts.googleapis.com%2Fcss%3Ffamily%3DArchitects%2BDaughter;fontSize=16;startSize=14;endArrow=open;endSize=14;sourcePerimeterSpacing=8;targetPerimeterSpacing=8;" parent="1" source="88elJL9hMHFvYUew_hes-18" target="88elJL9hMHFvYUew_hes-20" edge="1">
          <mxGeometry relative="1" as="geometry" />
        </mxCell>
        <mxCell id="88elJL9hMHFvYUew_hes-18" value="SELECT" style="shape=process;whiteSpace=wrap;html=1;backgroundOutline=1;fontFamily=Architects Daughter;sketch=1;hachureGap=4;jiggle=2;curveFitting=1;fontSource=https%3A%2F%2Ffonts.googleapis.com%2Fcss%3Ffamily%3DArchitects%2BDaughter;" parent="1" vertex="1">
          <mxGeometry x="329.06" y="585" width="120" height="60" as="geometry" />
        </mxCell>
        <mxCell id="88elJL9hMHFvYUew_hes-23" value="" style="edgeStyle=none;curved=1;rounded=0;sketch=1;hachureGap=4;jiggle=2;curveFitting=1;orthogonalLoop=1;jettySize=auto;html=1;fontFamily=Architects Daughter;fontSource=https%3A%2F%2Ffonts.googleapis.com%2Fcss%3Ffamily%3DArchitects%2BDaughter;fontSize=16;startSize=14;endArrow=open;endSize=14;sourcePerimeterSpacing=8;targetPerimeterSpacing=8;" parent="1" source="88elJL9hMHFvYUew_hes-20" target="88elJL9hMHFvYUew_hes-22" edge="1">
          <mxGeometry relative="1" as="geometry" />
        </mxCell>
        <mxCell id="88elJL9hMHFvYUew_hes-20" value="next char" style="whiteSpace=wrap;html=1;fontFamily=Architects Daughter;sketch=1;hachureGap=4;jiggle=2;curveFitting=1;fontSource=https%3A%2F%2Ffonts.googleapis.com%2Fcss%3Ffamily%3DArchitects%2BDaughter;" parent="1" vertex="1">
          <mxGeometry x="569.06" y="585" width="120" height="60" as="geometry" />
        </mxCell>
        <mxCell id="88elJL9hMHFvYUew_hes-25" value="" style="edgeStyle=none;curved=1;rounded=0;sketch=1;hachureGap=4;jiggle=2;curveFitting=1;orthogonalLoop=1;jettySize=auto;html=1;fontFamily=Architects Daughter;fontSource=https%3A%2F%2Ffonts.googleapis.com%2Fcss%3Ffamily%3DArchitects%2BDaughter;fontSize=16;startSize=14;endArrow=open;endSize=14;sourcePerimeterSpacing=8;targetPerimeterSpacing=8;" parent="1" source="88elJL9hMHFvYUew_hes-22" target="88elJL9hMHFvYUew_hes-24" edge="1">
          <mxGeometry relative="1" as="geometry" />
        </mxCell>
        <mxCell id="88elJL9hMHFvYUew_hes-26" value="yes" style="edgeLabel;html=1;align=center;verticalAlign=middle;resizable=0;points=[];fontSize=16;sketch=1;hachureGap=4;jiggle=2;curveFitting=1;fontFamily=Architects Daughter;fontSource=https%3A%2F%2Ffonts.googleapis.com%2Fcss%3Ffamily%3DArchitects%2BDaughter;" parent="88elJL9hMHFvYUew_hes-25" vertex="1" connectable="0">
          <mxGeometry x="-0.1462" y="-2" relative="1" as="geometry">
            <mxPoint as="offset" />
          </mxGeometry>
        </mxCell>
        <mxCell id="88elJL9hMHFvYUew_hes-29" value="" style="edgeStyle=none;curved=1;rounded=0;sketch=1;hachureGap=4;jiggle=2;curveFitting=1;orthogonalLoop=1;jettySize=auto;html=1;fontFamily=Architects Daughter;fontSource=https%3A%2F%2Ffonts.googleapis.com%2Fcss%3Ffamily%3DArchitects%2BDaughter;fontSize=16;startSize=14;endArrow=open;endSize=14;sourcePerimeterSpacing=8;targetPerimeterSpacing=8;" parent="1" source="88elJL9hMHFvYUew_hes-22" target="88elJL9hMHFvYUew_hes-28" edge="1">
          <mxGeometry relative="1" as="geometry" />
        </mxCell>
        <mxCell id="88elJL9hMHFvYUew_hes-30" value="no" style="edgeLabel;html=1;align=center;verticalAlign=middle;resizable=0;points=[];fontSize=16;sketch=1;hachureGap=4;jiggle=2;curveFitting=1;fontFamily=Architects Daughter;fontSource=https%3A%2F%2Ffonts.googleapis.com%2Fcss%3Ffamily%3DArchitects%2BDaughter;" parent="88elJL9hMHFvYUew_hes-29" vertex="1" connectable="0">
          <mxGeometry x="0.0385" y="1" relative="1" as="geometry">
            <mxPoint as="offset" />
          </mxGeometry>
        </mxCell>
        <mxCell id="88elJL9hMHFvYUew_hes-22" value="is quote" style="rhombus;whiteSpace=wrap;html=1;fontFamily=Architects Daughter;sketch=1;hachureGap=4;jiggle=2;curveFitting=1;fontSource=https%3A%2F%2Ffonts.googleapis.com%2Fcss%3Ffamily%3DArchitects%2BDaughter;" parent="1" vertex="1">
          <mxGeometry x="800" y="562.5" width="110.94" height="105" as="geometry" />
        </mxCell>
        <mxCell id="88elJL9hMHFvYUew_hes-32" value="" style="edgeStyle=none;curved=1;rounded=0;sketch=1;hachureGap=4;jiggle=2;curveFitting=1;orthogonalLoop=1;jettySize=auto;html=1;fontFamily=Architects Daughter;fontSource=https%3A%2F%2Ffonts.googleapis.com%2Fcss%3Ffamily%3DArchitects%2BDaughter;fontSize=16;startSize=14;endArrow=open;endSize=14;sourcePerimeterSpacing=8;targetPerimeterSpacing=8;" parent="1" source="88elJL9hMHFvYUew_hes-24" target="88elJL9hMHFvYUew_hes-31" edge="1">
          <mxGeometry relative="1" as="geometry" />
        </mxCell>
        <mxCell id="88elJL9hMHFvYUew_hes-24" value="read until close" style="whiteSpace=wrap;html=1;fontFamily=Architects Daughter;sketch=1;hachureGap=4;jiggle=2;curveFitting=1;fontSource=https%3A%2F%2Ffonts.googleapis.com%2Fcss%3Ffamily%3DArchitects%2BDaughter;" parent="1" vertex="1">
          <mxGeometry x="795.47" y="360" width="120" height="60" as="geometry" />
        </mxCell>
        <mxCell id="88elJL9hMHFvYUew_hes-28" value="is comma" style="rhombus;whiteSpace=wrap;html=1;fontFamily=Architects Daughter;sketch=1;hachureGap=4;jiggle=2;curveFitting=1;fontSource=https%3A%2F%2Ffonts.googleapis.com%2Fcss%3Ffamily%3DArchitects%2BDaughter;" parent="1" vertex="1">
          <mxGeometry x="800" y="787.5" width="110.94" height="105" as="geometry" />
        </mxCell>
        <mxCell id="88elJL9hMHFvYUew_hes-35" style="edgeStyle=orthogonalEdgeStyle;rounded=0;sketch=1;hachureGap=4;jiggle=2;curveFitting=1;orthogonalLoop=1;jettySize=auto;html=1;exitX=1;exitY=0.5;exitDx=0;exitDy=0;entryX=0;entryY=0.5;entryDx=0;entryDy=0;strokeColor=default;align=center;verticalAlign=middle;fontFamily=Architects Daughter;fontSource=https%3A%2F%2Ffonts.googleapis.com%2Fcss%3Ffamily%3DArchitects%2BDaughter;fontSize=16;fontColor=default;labelBackgroundColor=default;startSize=14;endArrow=open;endSize=14;sourcePerimeterSpacing=8;targetPerimeterSpacing=8;" parent="1" source="88elJL9hMHFvYUew_hes-31" target="88elJL9hMHFvYUew_hes-34" edge="1">
          <mxGeometry relative="1" as="geometry" />
        </mxCell>
        <mxCell id="88elJL9hMHFvYUew_hes-31" value="store argument" style="shape=process;whiteSpace=wrap;html=1;backgroundOutline=1;fontFamily=Architects Daughter;sketch=1;hachureGap=4;jiggle=2;curveFitting=1;fontSource=https%3A%2F%2Ffonts.googleapis.com%2Fcss%3Ffamily%3DArchitects%2BDaughter;" parent="1" vertex="1">
          <mxGeometry x="1040" y="585" width="120" height="60" as="geometry" />
        </mxCell>
        <mxCell id="88elJL9hMHFvYUew_hes-37" style="edgeStyle=orthogonalEdgeStyle;rounded=0;sketch=1;hachureGap=4;jiggle=2;curveFitting=1;orthogonalLoop=1;jettySize=auto;html=1;exitX=1;exitY=0.5;exitDx=0;exitDy=0;entryX=0;entryY=0.5;entryDx=0;entryDy=0;strokeColor=default;align=center;verticalAlign=middle;fontFamily=Architects Daughter;fontSource=https%3A%2F%2Ffonts.googleapis.com%2Fcss%3Ffamily%3DArchitects%2BDaughter;fontSize=16;fontColor=default;labelBackgroundColor=default;startSize=14;endArrow=open;endSize=14;sourcePerimeterSpacing=8;targetPerimeterSpacing=8;" parent="1" source="88elJL9hMHFvYUew_hes-34" target="88elJL9hMHFvYUew_hes-36" edge="1">
          <mxGeometry relative="1" as="geometry" />
        </mxCell>
        <mxCell id="88elJL9hMHFvYUew_hes-34" value="next char" style="whiteSpace=wrap;html=1;fontFamily=Architects Daughter;sketch=1;hachureGap=4;jiggle=2;curveFitting=1;fontSource=https%3A%2F%2Ffonts.googleapis.com%2Fcss%3Ffamily%3DArchitects%2BDaughter;" parent="1" vertex="1">
          <mxGeometry x="1270" y="585" width="120" height="60" as="geometry" />
        </mxCell>
        <mxCell id="88elJL9hMHFvYUew_hes-40" style="edgeStyle=orthogonalEdgeStyle;rounded=0;sketch=1;hachureGap=4;jiggle=2;curveFitting=1;orthogonalLoop=1;jettySize=auto;html=1;exitX=0.5;exitY=0;exitDx=0;exitDy=0;entryX=0.5;entryY=0;entryDx=0;entryDy=0;strokeColor=default;align=center;verticalAlign=middle;fontFamily=Architects Daughter;fontSource=https%3A%2F%2Ffonts.googleapis.com%2Fcss%3Ffamily%3DArchitects%2BDaughter;fontSize=16;fontColor=default;labelBackgroundColor=default;startSize=14;endArrow=open;endSize=14;sourcePerimeterSpacing=8;targetPerimeterSpacing=8;" parent="1" source="88elJL9hMHFvYUew_hes-36" target="88elJL9hMHFvYUew_hes-20" edge="1">
          <mxGeometry relative="1" as="geometry">
            <Array as="points">
              <mxPoint x="1556" y="280" />
              <mxPoint x="629" y="280" />
            </Array>
          </mxGeometry>
        </mxCell>
        <mxCell id="88elJL9hMHFvYUew_hes-41" value="yes" style="edgeLabel;html=1;align=center;verticalAlign=middle;resizable=0;points=[];fontSize=16;sketch=1;hachureGap=4;jiggle=2;curveFitting=1;fontFamily=Architects Daughter;fontSource=https%3A%2F%2Ffonts.googleapis.com%2Fcss%3Ffamily%3DArchitects%2BDaughter;fontColor=default;labelBackgroundColor=default;" parent="88elJL9hMHFvYUew_hes-40" vertex="1" connectable="0">
          <mxGeometry x="-0.8639" y="-1" relative="1" as="geometry">
            <mxPoint as="offset" />
          </mxGeometry>
        </mxCell>
        <mxCell id="88elJL9hMHFvYUew_hes-36" value="is comma" style="rhombus;whiteSpace=wrap;html=1;fontFamily=Architects Daughter;sketch=1;hachureGap=4;jiggle=2;curveFitting=1;fontSource=https%3A%2F%2Ffonts.googleapis.com%2Fcss%3Ffamily%3DArchitects%2BDaughter;" parent="1" vertex="1">
          <mxGeometry x="1500" y="562.5" width="110.94" height="105" as="geometry" />
        </mxCell>
        <mxCell id="88elJL9hMHFvYUew_hes-49" value="" style="group" parent="1" vertex="1" connectable="0">
          <mxGeometry x="1415.94" y="760" width="279.05999999999995" height="180" as="geometry" />
        </mxCell>
        <mxCell id="88elJL9hMHFvYUew_hes-42" value="find next comma" style="whiteSpace=wrap;html=1;fontFamily=Architects Daughter;sketch=1;hachureGap=4;jiggle=2;curveFitting=1;fontSource=https%3A%2F%2Ffonts.googleapis.com%2Fcss%3Ffamily%3DArchitects%2BDaughter;" parent="88elJL9hMHFvYUew_hes-49" vertex="1">
          <mxGeometry y="120" width="120" height="60" as="geometry" />
        </mxCell>
        <mxCell id="88elJL9hMHFvYUew_hes-44" value="find next space" style="whiteSpace=wrap;html=1;fontFamily=Architects Daughter;sketch=1;hachureGap=4;jiggle=2;curveFitting=1;fontSource=https%3A%2F%2Ffonts.googleapis.com%2Fcss%3Ffamily%3DArchitects%2BDaughter;" parent="88elJL9hMHFvYUew_hes-49" vertex="1">
          <mxGeometry x="159.05999999999995" y="120" width="120" height="60" as="geometry" />
        </mxCell>
        <mxCell id="88elJL9hMHFvYUew_hes-47" style="edgeStyle=orthogonalEdgeStyle;rounded=0;sketch=1;hachureGap=4;jiggle=2;curveFitting=1;orthogonalLoop=1;jettySize=auto;html=1;exitX=1;exitY=1;exitDx=0;exitDy=0;exitPerimeter=0;entryX=0.5;entryY=0;entryDx=0;entryDy=0;strokeColor=default;align=center;verticalAlign=middle;fontFamily=Architects Daughter;fontSource=https%3A%2F%2Ffonts.googleapis.com%2Fcss%3Ffamily%3DArchitects%2BDaughter;fontSize=16;fontColor=default;labelBackgroundColor=default;startSize=14;endArrow=open;endSize=14;sourcePerimeterSpacing=8;targetPerimeterSpacing=8;" parent="88elJL9hMHFvYUew_hes-49" source="88elJL9hMHFvYUew_hes-45" target="88elJL9hMHFvYUew_hes-42" edge="1">
          <mxGeometry relative="1" as="geometry" />
        </mxCell>
        <mxCell id="88elJL9hMHFvYUew_hes-48" style="edgeStyle=orthogonalEdgeStyle;rounded=0;sketch=1;hachureGap=4;jiggle=2;curveFitting=1;orthogonalLoop=1;jettySize=auto;html=1;exitX=1;exitY=0;exitDx=0;exitDy=0;exitPerimeter=0;entryX=0.5;entryY=0;entryDx=0;entryDy=0;strokeColor=default;align=center;verticalAlign=middle;fontFamily=Architects Daughter;fontSource=https%3A%2F%2Ffonts.googleapis.com%2Fcss%3Ffamily%3DArchitects%2BDaughter;fontSize=16;fontColor=default;labelBackgroundColor=default;startSize=14;endArrow=open;endSize=14;sourcePerimeterSpacing=8;targetPerimeterSpacing=8;" parent="88elJL9hMHFvYUew_hes-49" source="88elJL9hMHFvYUew_hes-45" target="88elJL9hMHFvYUew_hes-44" edge="1">
          <mxGeometry relative="1" as="geometry" />
        </mxCell>
        <mxCell id="88elJL9hMHFvYUew_hes-45" value="" style="strokeWidth=2;html=1;shape=mxgraph.flowchart.annotation_2;align=left;labelPosition=right;pointerEvents=1;sketch=1;hachureGap=4;jiggle=2;curveFitting=1;fontFamily=Architects Daughter;fontSource=https%3A%2F%2Ffonts.googleapis.com%2Fcss%3Ffamily%3DArchitects%2BDaughter;fontSize=16;fontColor=default;labelBackgroundColor=default;direction=south;" parent="88elJL9hMHFvYUew_hes-49" vertex="1">
          <mxGeometry x="59.059999999999945" width="160" height="90" as="geometry" />
        </mxCell>
        <mxCell id="88elJL9hMHFvYUew_hes-51" style="edgeStyle=orthogonalEdgeStyle;rounded=0;sketch=1;hachureGap=4;jiggle=2;curveFitting=1;orthogonalLoop=1;jettySize=auto;html=1;exitX=0.5;exitY=1;exitDx=0;exitDy=0;entryX=0;entryY=0.5;entryDx=0;entryDy=0;entryPerimeter=0;strokeColor=default;align=center;verticalAlign=middle;fontFamily=Architects Daughter;fontSource=https%3A%2F%2Ffonts.googleapis.com%2Fcss%3Ffamily%3DArchitects%2BDaughter;fontSize=16;fontColor=default;labelBackgroundColor=default;startSize=14;endArrow=none;endSize=14;sourcePerimeterSpacing=8;targetPerimeterSpacing=8;endFill=0;" parent="1" source="88elJL9hMHFvYUew_hes-36" target="88elJL9hMHFvYUew_hes-45" edge="1">
          <mxGeometry relative="1" as="geometry" />
        </mxCell>
        <mxCell id="88elJL9hMHFvYUew_hes-52" value="no" style="edgeLabel;html=1;align=center;verticalAlign=middle;resizable=0;points=[];fontSize=16;sketch=1;hachureGap=4;jiggle=2;curveFitting=1;fontFamily=Architects Daughter;fontSource=https%3A%2F%2Ffonts.googleapis.com%2Fcss%3Ffamily%3DArchitects%2BDaughter;fontColor=default;labelBackgroundColor=default;" parent="88elJL9hMHFvYUew_hes-51" vertex="1" connectable="0">
          <mxGeometry x="0.2151" relative="1" as="geometry">
            <mxPoint as="offset" />
          </mxGeometry>
        </mxCell>
      </root>
    </mxGraphModel>
  </diagram>
  <diagram name="Copy of Page-1" id="mSSjhz27Lx3t53vWQ3M1">
    <mxGraphModel dx="3328" dy="1005" grid="1" gridSize="10" guides="1" tooltips="1" connect="1" arrows="1" fold="1" page="0" pageScale="1" pageWidth="850" pageHeight="1100" background="#001933" math="0" shadow="0">
      <root>
        <mxCell id="Sk5A0OWVfIpNJf4I5SIx-0" />
        <mxCell id="Sk5A0OWVfIpNJf4I5SIx-1" parent="Sk5A0OWVfIpNJf4I5SIx-0" />
        <UserObject label="Musa öfekli bir şekilde kavmine döner" tooltip="" id="1IvObFpdUJ6TvMwDu36v-0">
          <mxCell style="text;strokeColor=none;fillColor=none;html=1;align=center;verticalAlign=middle;whiteSpace=wrap;rounded=0;fontSize=20;fontFamily=Architects Daughter;fontSource=https%3A%2F%2Ffonts.googleapis.com%2Fcss%3Ffamily%3DArchitects%2BDaughter;" vertex="1" parent="Sk5A0OWVfIpNJf4I5SIx-1">
            <mxGeometry x="350" y="240" width="240" height="60" as="geometry" />
          </mxCell>
        </UserObject>
        <UserObject label="&quot;ama orada lut var&quot;, Lut hususunda tartışmaya girişir" tooltip="" id="1IvObFpdUJ6TvMwDu36v-2">
          <mxCell style="text;strokeColor=none;fillColor=none;html=1;align=center;verticalAlign=middle;whiteSpace=wrap;rounded=0;fontSize=20;fontFamily=Architects Daughter;fontSource=https%3A%2F%2Ffonts.googleapis.com%2Fcss%3Ffamily%3DArchitects%2BDaughter;" vertex="1" parent="Sk5A0OWVfIpNJf4I5SIx-1">
            <mxGeometry x="210" y="1080" width="250" height="90" as="geometry" />
          </mxCell>
        </UserObject>
        <UserObject label="ölüleri nasıl dirilteceksin diye sorar" tooltip="" id="1IvObFpdUJ6TvMwDu36v-3">
          <mxCell style="text;strokeColor=none;fillColor=none;html=1;align=center;verticalAlign=middle;whiteSpace=wrap;rounded=0;fontSize=20;fontFamily=Architects Daughter;fontSource=https%3A%2F%2Ffonts.googleapis.com%2Fcss%3Ffamily%3DArchitects%2BDaughter;" vertex="1" parent="Sk5A0OWVfIpNJf4I5SIx-1">
            <mxGeometry x="370" y="1410" width="240" height="50" as="geometry" />
          </mxCell>
        </UserObject>
        <UserObject label="sakalını çeker. Harun kendini savunur&amp;nbsp;" tooltip="" id="1IvObFpdUJ6TvMwDu36v-4">
          <mxCell style="text;strokeColor=none;fillColor=none;html=1;align=center;verticalAlign=middle;whiteSpace=wrap;rounded=0;fontSize=20;fontFamily=Architects Daughter;fontSource=https%3A%2F%2Ffonts.googleapis.com%2Fcss%3Ffamily%3DArchitects%2BDaughter;" vertex="1" parent="Sk5A0OWVfIpNJf4I5SIx-1">
            <mxGeometry x="1090" y="350" width="220" height="90" as="geometry" />
          </mxCell>
        </UserObject>
        <UserObject label="Musa bir inek kesilmesini iletir" tooltip="" id="1IvObFpdUJ6TvMwDu36v-5">
          <mxCell style="text;strokeColor=none;fillColor=none;html=1;align=center;verticalAlign=middle;whiteSpace=wrap;rounded=0;fontSize=20;fontFamily=Architects Daughter;fontSource=https%3A%2F%2Ffonts.googleapis.com%2Fcss%3Ffamily%3DArchitects%2BDaughter;" vertex="1" parent="Sk5A0OWVfIpNJf4I5SIx-1">
            <mxGeometry x="90" y="330" width="170" height="50" as="geometry" />
          </mxCell>
        </UserObject>
        <UserObject label="oğluna tavsiyeler verir, zerreye dikkate et" tooltip="" id="1IvObFpdUJ6TvMwDu36v-6">
          <mxCell style="text;strokeColor=none;fillColor=none;html=1;align=center;verticalAlign=middle;whiteSpace=wrap;rounded=0;fontSize=20;fontFamily=Architects Daughter;fontSource=https%3A%2F%2Ffonts.googleapis.com%2Fcss%3Ffamily%3DArchitects%2BDaughter;" vertex="1" parent="Sk5A0OWVfIpNJf4I5SIx-1">
            <mxGeometry x="-220" y="1020" width="260" height="70" as="geometry" />
          </mxCell>
        </UserObject>
        <UserObject label="Lut, kavminden bir sağlam kaleye sığınabilmeyi diler" tooltip="" id="1IvObFpdUJ6TvMwDu36v-7">
          <mxCell style="text;strokeColor=none;fillColor=none;html=1;align=center;verticalAlign=middle;whiteSpace=wrap;rounded=0;fontSize=20;fontFamily=Architects Daughter;fontSource=https%3A%2F%2Ffonts.googleapis.com%2Fcss%3Ffamily%3DArchitects%2BDaughter;" vertex="1" parent="Sk5A0OWVfIpNJf4I5SIx-1">
            <mxGeometry x="990" y="1130" width="260" height="50" as="geometry" />
          </mxCell>
        </UserObject>
        <UserObject label="İbrahim, rabbine hicret etmeyi seçer, bunun üzerine O&#39;na yalnızca Lut inanır" tooltip="" id="1IvObFpdUJ6TvMwDu36v-9">
          <mxCell style="text;strokeColor=none;fillColor=none;html=1;align=center;verticalAlign=middle;whiteSpace=wrap;rounded=0;fontSize=20;fontFamily=Architects Daughter;fontSource=https%3A%2F%2Ffonts.googleapis.com%2Fcss%3Ffamily%3DArchitects%2BDaughter;" vertex="1" parent="Sk5A0OWVfIpNJf4I5SIx-1">
            <mxGeometry x="630" y="1090" width="270" height="70" as="geometry" />
          </mxCell>
        </UserObject>
        <UserObject label="acele eder, rabbini hoşnut etmek istediği için" tooltip="" id="1IvObFpdUJ6TvMwDu36v-10">
          <mxCell style="text;strokeColor=none;fillColor=none;html=1;align=center;verticalAlign=middle;whiteSpace=wrap;rounded=0;fontSize=20;fontFamily=Architects Daughter;fontSource=https%3A%2F%2Ffonts.googleapis.com%2Fcss%3Ffamily%3DArchitects%2BDaughter;" vertex="1" parent="Sk5A0OWVfIpNJf4I5SIx-1">
            <mxGeometry x="740" y="300" width="210" height="90" as="geometry" />
          </mxCell>
        </UserObject>
        <UserObject label="Musa, Samiri&#39;ye sen ne diye böyle bir şey yaptın der" tooltip="" id="1IvObFpdUJ6TvMwDu36v-11">
          <mxCell style="text;strokeColor=none;fillColor=none;html=1;align=center;verticalAlign=middle;whiteSpace=wrap;rounded=0;fontSize=20;fontFamily=Architects Daughter;fontSource=https%3A%2F%2Ffonts.googleapis.com%2Fcss%3Ffamily%3DArchitects%2BDaughter;" vertex="1" parent="Sk5A0OWVfIpNJf4I5SIx-1">
            <mxGeometry x="-80" y="480" width="260" height="60" as="geometry" />
          </mxCell>
        </UserObject>
        <UserObject label="Musa, dağda bir ateş görür" tooltip="" id="1IvObFpdUJ6TvMwDu36v-12">
          <mxCell style="text;strokeColor=none;fillColor=none;html=1;align=center;verticalAlign=middle;whiteSpace=wrap;rounded=0;fontSize=20;fontFamily=Architects Daughter;fontSource=https%3A%2F%2Ffonts.googleapis.com%2Fcss%3Ffamily%3DArchitects%2BDaughter;" vertex="1" parent="Sk5A0OWVfIpNJf4I5SIx-1">
            <mxGeometry x="360" y="420" width="270" height="40" as="geometry" />
          </mxCell>
        </UserObject>
        <UserObject label="ateşten bir kor veya haber getirmeye karar verir" tooltip="" id="1IvObFpdUJ6TvMwDu36v-13">
          <mxCell style="text;strokeColor=none;fillColor=none;html=1;align=center;verticalAlign=middle;whiteSpace=wrap;rounded=0;fontSize=20;fontFamily=Architects Daughter;fontSource=https%3A%2F%2Ffonts.googleapis.com%2Fcss%3Ffamily%3DArchitects%2BDaughter;" vertex="1" parent="Sk5A0OWVfIpNJf4I5SIx-1">
            <mxGeometry x="490" y="560" width="270" height="60" as="geometry" />
          </mxCell>
        </UserObject>
        <UserObject label="ateşin içinden seslenilir" tooltip="" id="1IvObFpdUJ6TvMwDu36v-14">
          <mxCell style="text;strokeColor=none;fillColor=none;html=1;align=center;verticalAlign=middle;whiteSpace=wrap;rounded=0;fontSize=20;fontFamily=Architects Daughter;fontSource=https%3A%2F%2Ffonts.googleapis.com%2Fcss%3Ffamily%3DArchitects%2BDaughter;" vertex="1" parent="Sk5A0OWVfIpNJf4I5SIx-1">
            <mxGeometry x="630" y="660" width="270" height="50" as="geometry" />
          </mxCell>
        </UserObject>
        <UserObject label="papuçlarını çıkar çünkü kutsal vadi tuva&#39;dasın" tooltip="" id="1IvObFpdUJ6TvMwDu36v-15">
          <mxCell style="text;strokeColor=none;fillColor=none;html=1;align=center;verticalAlign=middle;whiteSpace=wrap;rounded=0;fontSize=20;fontFamily=Architects Daughter;fontSource=https%3A%2F%2Ffonts.googleapis.com%2Fcss%3Ffamily%3DArchitects%2BDaughter;" vertex="1" parent="Sk5A0OWVfIpNJf4I5SIx-1">
            <mxGeometry x="890" y="620" width="270" height="50" as="geometry" />
          </mxCell>
        </UserObject>
        <UserObject label="firav&#39;n çok azdı ona git" tooltip="" id="1IvObFpdUJ6TvMwDu36v-16">
          <mxCell style="text;strokeColor=none;fillColor=none;html=1;align=center;verticalAlign=middle;whiteSpace=wrap;rounded=0;fontSize=20;fontFamily=Architects Daughter;fontSource=https%3A%2F%2Ffonts.googleapis.com%2Fcss%3Ffamily%3DArchitects%2BDaughter;" vertex="1" parent="Sk5A0OWVfIpNJf4I5SIx-1">
            <mxGeometry x="1100" y="680" width="270" height="50" as="geometry" />
          </mxCell>
        </UserObject>
        <UserObject label="elindeki nedir ya musa" tooltip="" id="1IvObFpdUJ6TvMwDu36v-17">
          <mxCell style="text;strokeColor=none;fillColor=none;html=1;align=center;verticalAlign=middle;whiteSpace=wrap;rounded=0;fontSize=20;fontFamily=Architects Daughter;fontSource=https%3A%2F%2Ffonts.googleapis.com%2Fcss%3Ffamily%3DArchitects%2BDaughter;" vertex="1" parent="Sk5A0OWVfIpNJf4I5SIx-1">
            <mxGeometry x="1300" y="630" width="270" height="50" as="geometry" />
          </mxCell>
        </UserObject>
        <UserObject label="asam, ona dayanırım yaprak silkelerim ve başka ihtiyaçlarımı da karşılarım" tooltip="" id="1IvObFpdUJ6TvMwDu36v-18">
          <mxCell style="text;strokeColor=none;fillColor=none;html=1;align=center;verticalAlign=middle;whiteSpace=wrap;rounded=0;fontSize=20;fontFamily=Architects Daughter;fontSource=https%3A%2F%2Ffonts.googleapis.com%2Fcss%3Ffamily%3DArchitects%2BDaughter;" vertex="1" parent="Sk5A0OWVfIpNJf4I5SIx-1">
            <mxGeometry x="1580" y="670" width="250" height="70" as="geometry" />
          </mxCell>
        </UserObject>
        <UserObject label="ben onların göremediği bir şey gördüm" tooltip="" id="1IvObFpdUJ6TvMwDu36v-19">
          <mxCell style="text;strokeColor=none;fillColor=none;html=1;align=center;verticalAlign=middle;whiteSpace=wrap;rounded=0;fontSize=20;fontFamily=Architects Daughter;fontSource=https%3A%2F%2Ffonts.googleapis.com%2Fcss%3Ffamily%3DArchitects%2BDaughter;" vertex="1" parent="Sk5A0OWVfIpNJf4I5SIx-1">
            <mxGeometry x="-250" y="590" width="210" height="60" as="geometry" />
          </mxCell>
        </UserObject>
        <UserObject label="kavmim eserim üzere geliyor" tooltip="" id="1IvObFpdUJ6TvMwDu36v-20">
          <mxCell style="text;strokeColor=none;fillColor=none;html=1;align=center;verticalAlign=middle;whiteSpace=wrap;rounded=0;fontSize=20;fontFamily=Architects Daughter;fontSource=https%3A%2F%2Ffonts.googleapis.com%2Fcss%3Ffamily%3DArchitects%2BDaughter;" vertex="1" parent="Sk5A0OWVfIpNJf4I5SIx-1">
            <mxGeometry x="620" y="190" width="210" height="90" as="geometry" />
          </mxCell>
        </UserObject>
        <UserObject label="eserinden bir parça da aldım ateşe attım" tooltip="" id="1IvObFpdUJ6TvMwDu36v-21">
          <mxCell style="text;strokeColor=none;fillColor=none;html=1;align=center;verticalAlign=middle;whiteSpace=wrap;rounded=0;fontSize=20;fontFamily=Architects Daughter;fontSource=https%3A%2F%2Ffonts.googleapis.com%2Fcss%3Ffamily%3DArchitects%2BDaughter;" vertex="1" parent="Sk5A0OWVfIpNJf4I5SIx-1">
            <mxGeometry x="-490" y="580" width="190" height="80" as="geometry" />
          </mxCell>
        </UserObject>
        <UserObject label="böyle yapmayı nefsim bana hoş gösterdi" tooltip="" id="1IvObFpdUJ6TvMwDu36v-22">
          <mxCell style="text;strokeColor=none;fillColor=none;html=1;align=center;verticalAlign=middle;whiteSpace=wrap;rounded=0;fontSize=20;fontFamily=Architects Daughter;fontSource=https%3A%2F%2Ffonts.googleapis.com%2Fcss%3Ffamily%3DArchitects%2BDaughter;" vertex="1" parent="Sk5A0OWVfIpNJf4I5SIx-1">
            <mxGeometry x="-850" y="580" width="200" height="80" as="geometry" />
          </mxCell>
        </UserObject>
        <UserObject label="ziynetlerimizden attık, samiri de attı" tooltip="" id="1IvObFpdUJ6TvMwDu36v-23">
          <mxCell style="text;strokeColor=none;fillColor=none;html=1;align=center;verticalAlign=middle;whiteSpace=wrap;rounded=0;fontSize=20;fontFamily=Architects Daughter;fontSource=https%3A%2F%2Ffonts.googleapis.com%2Fcss%3Ffamily%3DArchitects%2BDaughter;" vertex="1" parent="Sk5A0OWVfIpNJf4I5SIx-1">
            <mxGeometry x="-450" y="490" width="190" height="80" as="geometry" />
          </mxCell>
        </UserObject>
        <UserObject label="ayrılık çıkardın demenden korktum" tooltip="" id="1IvObFpdUJ6TvMwDu36v-24">
          <mxCell style="text;strokeColor=none;fillColor=none;html=1;align=center;verticalAlign=middle;whiteSpace=wrap;rounded=0;fontSize=20;fontFamily=Architects Daughter;fontSource=https%3A%2F%2Ffonts.googleapis.com%2Fcss%3Ffamily%3DArchitects%2BDaughter;" vertex="1" parent="Sk5A0OWVfIpNJf4I5SIx-1">
            <mxGeometry x="1330" y="370" width="210" height="50" as="geometry" />
          </mxCell>
        </UserObject>
        <UserObject label="düşmanları üzerimize güldürme" tooltip="" id="1IvObFpdUJ6TvMwDu36v-25">
          <mxCell style="text;strokeColor=none;fillColor=none;html=1;align=center;verticalAlign=middle;whiteSpace=wrap;rounded=0;fontSize=20;fontFamily=Architects Daughter;fontSource=https%3A%2F%2Ffonts.googleapis.com%2Fcss%3Ffamily%3DArchitects%2BDaughter;" vertex="1" parent="Sk5A0OWVfIpNJf4I5SIx-1">
            <mxGeometry x="1560" y="360" width="210" height="50" as="geometry" />
          </mxCell>
        </UserObject>
        <UserObject label="levhaları yere atar" tooltip="" id="1IvObFpdUJ6TvMwDu36v-26">
          <mxCell style="text;strokeColor=none;fillColor=none;html=1;align=center;verticalAlign=middle;whiteSpace=wrap;rounded=0;fontSize=20;fontFamily=Architects Daughter;fontSource=https%3A%2F%2Ffonts.googleapis.com%2Fcss%3Ffamily%3DArchitects%2BDaughter;" vertex="1" parent="Sk5A0OWVfIpNJf4I5SIx-1">
            <mxGeometry x="950" y="240" width="240" height="50" as="geometry" />
          </mxCell>
        </UserObject>
        <UserObject label="biz onu yakıp küllerini denize savuracağız" tooltip="" id="1IvObFpdUJ6TvMwDu36v-27">
          <mxCell style="text;strokeColor=none;fillColor=none;html=1;align=center;verticalAlign=middle;whiteSpace=wrap;rounded=0;fontSize=20;fontFamily=Architects Daughter;fontSource=https%3A%2F%2Ffonts.googleapis.com%2Fcss%3Ffamily%3DArchitects%2BDaughter;" vertex="1" parent="Sk5A0OWVfIpNJf4I5SIx-1">
            <mxGeometry x="-1140" y="570" width="200" height="80" as="geometry" />
          </mxCell>
        </UserObject>
        <UserObject label="sana da ebediyyen &quot;bana dokunmak yok&quot;" tooltip="" id="1IvObFpdUJ6TvMwDu36v-28">
          <mxCell style="text;strokeColor=none;fillColor=none;html=1;align=center;verticalAlign=middle;whiteSpace=wrap;rounded=0;fontSize=20;fontFamily=Architects Daughter;fontSource=https%3A%2F%2Ffonts.googleapis.com%2Fcss%3Ffamily%3DArchitects%2BDaughter;" vertex="1" parent="Sk5A0OWVfIpNJf4I5SIx-1">
            <mxGeometry x="-1460" y="570" width="200" height="80" as="geometry" />
          </mxCell>
        </UserObject>
        <UserObject label="siniri geçince levhaları geri alır" tooltip="" id="1IvObFpdUJ6TvMwDu36v-29">
          <mxCell style="text;strokeColor=none;fillColor=none;html=1;align=center;verticalAlign=middle;whiteSpace=wrap;rounded=0;fontSize=20;fontFamily=Architects Daughter;fontSource=https%3A%2F%2Ffonts.googleapis.com%2Fcss%3Ffamily%3DArchitects%2BDaughter;" vertex="1" parent="Sk5A0OWVfIpNJf4I5SIx-1">
            <mxGeometry x="1800" y="290" width="240" height="50" as="geometry" />
          </mxCell>
        </UserObject>
        <UserObject label="yahya levhaları sıkıca tut" tooltip="" id="1IvObFpdUJ6TvMwDu36v-30">
          <mxCell style="text;strokeColor=none;fillColor=none;html=1;align=center;verticalAlign=middle;whiteSpace=wrap;rounded=0;fontSize=20;fontFamily=Architects Daughter;fontSource=https%3A%2F%2Ffonts.googleapis.com%2Fcss%3Ffamily%3DArchitects%2BDaughter;" vertex="1" parent="Sk5A0OWVfIpNJf4I5SIx-1">
            <mxGeometry x="1400" y="1130" width="240" height="50" as="geometry" />
          </mxCell>
        </UserObject>
        <UserObject label="biz O&#39;nu daha önce kimseye adaş yapmadık" tooltip="" id="1IvObFpdUJ6TvMwDu36v-31">
          <mxCell style="text;strokeColor=none;fillColor=none;html=1;align=center;verticalAlign=middle;whiteSpace=wrap;rounded=0;fontSize=20;fontFamily=Architects Daughter;fontSource=https%3A%2F%2Ffonts.googleapis.com%2Fcss%3Ffamily%3DArchitects%2BDaughter;" vertex="1" parent="Sk5A0OWVfIpNJf4I5SIx-1">
            <mxGeometry x="1220" y="1030" width="240" height="50" as="geometry" />
          </mxCell>
        </UserObject>
        <UserObject label="inanmadın mı ki?" tooltip="" id="1IvObFpdUJ6TvMwDu36v-32">
          <mxCell style="text;strokeColor=none;fillColor=none;html=1;align=center;verticalAlign=middle;whiteSpace=wrap;rounded=0;fontSize=20;fontFamily=Architects Daughter;fontSource=https%3A%2F%2Ffonts.googleapis.com%2Fcss%3Ffamily%3DArchitects%2BDaughter;" vertex="1" parent="Sk5A0OWVfIpNJf4I5SIx-1">
            <mxGeometry x="370" y="1510" width="240" height="50" as="geometry" />
          </mxCell>
        </UserObject>
        <UserObject label="kalbim tatmin olsun diye" tooltip="" id="1IvObFpdUJ6TvMwDu36v-33">
          <mxCell style="text;strokeColor=none;fillColor=none;html=1;align=center;verticalAlign=middle;whiteSpace=wrap;rounded=0;fontSize=20;fontFamily=Architects Daughter;fontSource=https%3A%2F%2Ffonts.googleapis.com%2Fcss%3Ffamily%3DArchitects%2BDaughter;" vertex="1" parent="Sk5A0OWVfIpNJf4I5SIx-1">
            <mxGeometry x="370" y="1620" width="240" height="50" as="geometry" />
          </mxCell>
        </UserObject>
        <UserObject label="rabbini görmek ister" tooltip="" id="1IvObFpdUJ6TvMwDu36v-34">
          <mxCell style="text;strokeColor=none;fillColor=none;html=1;align=center;verticalAlign=middle;whiteSpace=wrap;rounded=0;fontSize=20;fontFamily=Architects Daughter;fontSource=https%3A%2F%2Ffonts.googleapis.com%2Fcss%3Ffamily%3DArchitects%2BDaughter;" vertex="1" parent="Sk5A0OWVfIpNJf4I5SIx-1">
            <mxGeometry x="790" y="1410" width="240" height="50" as="geometry" />
          </mxCell>
        </UserObject>
        <UserObject label="göremezsin, dağa bak" tooltip="" id="1IvObFpdUJ6TvMwDu36v-35">
          <mxCell style="text;strokeColor=none;fillColor=none;html=1;align=center;verticalAlign=middle;whiteSpace=wrap;rounded=0;fontSize=20;fontFamily=Architects Daughter;fontSource=https%3A%2F%2Ffonts.googleapis.com%2Fcss%3Ffamily%3DArchitects%2BDaughter;" vertex="1" parent="Sk5A0OWVfIpNJf4I5SIx-1">
            <mxGeometry x="790" y="1510" width="240" height="50" as="geometry" />
          </mxCell>
        </UserObject>
        <UserObject label="dağa yansıyınca bayılır" tooltip="" id="1IvObFpdUJ6TvMwDu36v-36">
          <mxCell style="text;strokeColor=none;fillColor=none;html=1;align=center;verticalAlign=middle;whiteSpace=wrap;rounded=0;fontSize=20;fontFamily=Architects Daughter;fontSource=https%3A%2F%2Ffonts.googleapis.com%2Fcss%3Ffamily%3DArchitects%2BDaughter;" vertex="1" parent="Sk5A0OWVfIpNJf4I5SIx-1">
            <mxGeometry x="790" y="1620" width="240" height="50" as="geometry" />
          </mxCell>
        </UserObject>
        <UserObject label="sizin de rabbiniz musa&#39;nın da ama musa onu unuttu" tooltip="" id="1IvObFpdUJ6TvMwDu36v-37">
          <mxCell style="text;strokeColor=none;fillColor=none;html=1;align=center;verticalAlign=middle;whiteSpace=wrap;rounded=0;fontSize=20;fontFamily=Architects Daughter;fontSource=https%3A%2F%2Ffonts.googleapis.com%2Fcss%3Ffamily%3DArchitects%2BDaughter;" vertex="1" parent="Sk5A0OWVfIpNJf4I5SIx-1">
            <mxGeometry x="-680" y="490" width="200" height="80" as="geometry" />
          </mxCell>
        </UserObject>
        <UserObject label="yıldızlara bakar, ben hastayım der" tooltip="" id="1IvObFpdUJ6TvMwDu36v-38">
          <mxCell style="text;strokeColor=none;fillColor=none;html=1;align=center;verticalAlign=middle;whiteSpace=wrap;rounded=0;fontSize=20;fontFamily=Architects Daughter;fontSource=https%3A%2F%2Ffonts.googleapis.com%2Fcss%3Ffamily%3DArchitects%2BDaughter;" vertex="1" parent="Sk5A0OWVfIpNJf4I5SIx-1">
            <mxGeometry x="-220" y="1820" width="220" height="70" as="geometry" />
          </mxCell>
        </UserObject>
        <UserObject label="evlatlarımı ekin bitmez çöle yerleştirdim" tooltip="" id="1IvObFpdUJ6TvMwDu36v-39">
          <mxCell style="text;strokeColor=none;fillColor=none;html=1;align=center;verticalAlign=middle;whiteSpace=wrap;rounded=0;fontSize=20;fontFamily=Architects Daughter;fontSource=https%3A%2F%2Ffonts.googleapis.com%2Fcss%3Ffamily%3DArchitects%2BDaughter;" vertex="1" parent="Sk5A0OWVfIpNJf4I5SIx-1">
            <mxGeometry x="160" y="1980" width="220" height="70" as="geometry" />
          </mxCell>
        </UserObject>
        <UserObject label="insanları onlara meylettir" tooltip="" id="1IvObFpdUJ6TvMwDu36v-40">
          <mxCell style="text;strokeColor=none;fillColor=none;html=1;align=center;verticalAlign=middle;whiteSpace=wrap;rounded=0;fontSize=20;fontFamily=Architects Daughter;fontSource=https%3A%2F%2Ffonts.googleapis.com%2Fcss%3Ffamily%3DArchitects%2BDaughter;" vertex="1" parent="Sk5A0OWVfIpNJf4I5SIx-1">
            <mxGeometry x="160" y="2080" width="220" height="70" as="geometry" />
          </mxCell>
        </UserObject>
        <UserObject label="onları meyvalarla rızıklandır" tooltip="" id="1IvObFpdUJ6TvMwDu36v-41">
          <mxCell style="text;strokeColor=none;fillColor=none;html=1;align=center;verticalAlign=middle;whiteSpace=wrap;rounded=0;fontSize=20;fontFamily=Architects Daughter;fontSource=https%3A%2F%2Ffonts.googleapis.com%2Fcss%3Ffamily%3DArchitects%2BDaughter;" vertex="1" parent="Sk5A0OWVfIpNJf4I5SIx-1">
            <mxGeometry x="160" y="2180" width="220" height="70" as="geometry" />
          </mxCell>
        </UserObject>
        <UserObject label="dört tane kuşu kendine alıştır" tooltip="" id="1IvObFpdUJ6TvMwDu36v-42">
          <mxCell style="text;strokeColor=none;fillColor=none;html=1;align=center;verticalAlign=middle;whiteSpace=wrap;rounded=0;fontSize=20;fontFamily=Architects Daughter;fontSource=https%3A%2F%2Ffonts.googleapis.com%2Fcss%3Ffamily%3DArchitects%2BDaughter;" vertex="1" parent="Sk5A0OWVfIpNJf4I5SIx-1">
            <mxGeometry x="370" y="1720" width="240" height="50" as="geometry" />
          </mxCell>
        </UserObject>
        <UserObject label="dağlara bir parça koy" tooltip="" id="1IvObFpdUJ6TvMwDu36v-43">
          <mxCell style="text;strokeColor=none;fillColor=none;html=1;align=center;verticalAlign=middle;whiteSpace=wrap;rounded=0;fontSize=20;fontFamily=Architects Daughter;fontSource=https%3A%2F%2Ffonts.googleapis.com%2Fcss%3Ffamily%3DArchitects%2BDaughter;" vertex="1" parent="Sk5A0OWVfIpNJf4I5SIx-1">
            <mxGeometry x="370" y="1820" width="240" height="50" as="geometry" />
          </mxCell>
        </UserObject>
        <UserObject label="kendine çağır, koşarak geldiklerini göreceksin" tooltip="" id="1IvObFpdUJ6TvMwDu36v-44">
          <mxCell style="text;strokeColor=none;fillColor=none;html=1;align=center;verticalAlign=middle;whiteSpace=wrap;rounded=0;fontSize=20;fontFamily=Architects Daughter;fontSource=https%3A%2F%2Ffonts.googleapis.com%2Fcss%3Ffamily%3DArchitects%2BDaughter;" vertex="1" parent="Sk5A0OWVfIpNJf4I5SIx-1">
            <mxGeometry x="370" y="1910" width="240" height="50" as="geometry" />
          </mxCell>
        </UserObject>
        <UserObject label="iki kişi avluyu aşarak gelir" tooltip="" id="1IvObFpdUJ6TvMwDu36v-45">
          <mxCell style="text;strokeColor=none;fillColor=none;html=1;align=center;verticalAlign=middle;whiteSpace=wrap;rounded=0;fontSize=20;fontFamily=Architects Daughter;fontSource=https%3A%2F%2Ffonts.googleapis.com%2Fcss%3Ffamily%3DArchitects%2BDaughter;" vertex="1" parent="Sk5A0OWVfIpNJf4I5SIx-1">
            <mxGeometry x="1340" y="1400" width="240" height="50" as="geometry" />
          </mxCell>
        </UserObject>
        <UserObject label="onlardan korkar" tooltip="" id="1IvObFpdUJ6TvMwDu36v-46">
          <mxCell style="text;strokeColor=none;fillColor=none;html=1;align=center;verticalAlign=middle;whiteSpace=wrap;rounded=0;fontSize=20;fontFamily=Architects Daughter;fontSource=https%3A%2F%2Ffonts.googleapis.com%2Fcss%3Ffamily%3DArchitects%2BDaughter;" vertex="1" parent="Sk5A0OWVfIpNJf4I5SIx-1">
            <mxGeometry x="1330" y="1490" width="240" height="50" as="geometry" />
          </mxCell>
        </UserObject>
        <UserObject label="korkma biz iki kardeşiz" tooltip="" id="1IvObFpdUJ6TvMwDu36v-47">
          <mxCell style="text;strokeColor=none;fillColor=none;html=1;align=center;verticalAlign=middle;whiteSpace=wrap;rounded=0;fontSize=20;fontFamily=Architects Daughter;fontSource=https%3A%2F%2Ffonts.googleapis.com%2Fcss%3Ffamily%3DArchitects%2BDaughter;" vertex="1" parent="Sk5A0OWVfIpNJf4I5SIx-1">
            <mxGeometry x="1330" y="1580" width="240" height="50" as="geometry" />
          </mxCell>
        </UserObject>
        <UserObject label="bizi doğru yolun ortasına çıkar, aramızda adaletle hükmet" tooltip="" id="1IvObFpdUJ6TvMwDu36v-48">
          <mxCell style="text;strokeColor=none;fillColor=none;html=1;align=center;verticalAlign=middle;whiteSpace=wrap;rounded=0;fontSize=20;fontFamily=Architects Daughter;fontSource=https%3A%2F%2Ffonts.googleapis.com%2Fcss%3Ffamily%3DArchitects%2BDaughter;" vertex="1" parent="Sk5A0OWVfIpNJf4I5SIx-1">
            <mxGeometry x="1330" y="1670" width="240" height="80" as="geometry" />
          </mxCell>
        </UserObject>
        <UserObject label="abimin 99 koyunu var benin 1 tane var, tartışmada üstün geldi" tooltip="" id="1IvObFpdUJ6TvMwDu36v-49">
          <mxCell style="text;strokeColor=none;fillColor=none;html=1;align=center;verticalAlign=middle;whiteSpace=wrap;rounded=0;fontSize=20;fontFamily=Architects Daughter;fontSource=https%3A%2F%2Ffonts.googleapis.com%2Fcss%3Ffamily%3DArchitects%2BDaughter;" vertex="1" parent="Sk5A0OWVfIpNJf4I5SIx-1">
            <mxGeometry x="1330" y="1800" width="240" height="80" as="geometry" />
          </mxCell>
        </UserObject>
        <UserObject label="oğum dağa çıkma geri gel" tooltip="" id="1IvObFpdUJ6TvMwDu36v-50">
          <mxCell style="text;strokeColor=none;fillColor=none;html=1;align=center;verticalAlign=middle;whiteSpace=wrap;rounded=0;fontSize=20;fontFamily=Architects Daughter;fontSource=https%3A%2F%2Ffonts.googleapis.com%2Fcss%3Ffamily%3DArchitects%2BDaughter;" vertex="1" parent="Sk5A0OWVfIpNJf4I5SIx-1">
            <mxGeometry x="-80" y="810" width="260" height="60" as="geometry" />
          </mxCell>
        </UserObject>
        <UserObject label="derken aralarına dalga girer" tooltip="" id="1IvObFpdUJ6TvMwDu36v-51">
          <mxCell style="text;strokeColor=none;fillColor=none;html=1;align=center;verticalAlign=middle;whiteSpace=wrap;rounded=0;fontSize=20;fontFamily=Architects Daughter;fontSource=https%3A%2F%2Ffonts.googleapis.com%2Fcss%3Ffamily%3DArchitects%2BDaughter;" vertex="1" parent="Sk5A0OWVfIpNJf4I5SIx-1">
            <mxGeometry x="-380" y="810" width="260" height="60" as="geometry" />
          </mxCell>
        </UserObject>
        <UserObject label="oğlum, o benim aliemdendir" tooltip="" id="1IvObFpdUJ6TvMwDu36v-52">
          <mxCell style="text;strokeColor=none;fillColor=none;html=1;align=center;verticalAlign=middle;whiteSpace=wrap;rounded=0;fontSize=20;fontFamily=Architects Daughter;fontSource=https%3A%2F%2Ffonts.googleapis.com%2Fcss%3Ffamily%3DArchitects%2BDaughter;" vertex="1" parent="Sk5A0OWVfIpNJf4I5SIx-1">
            <mxGeometry x="-580" y="810" width="190" height="60" as="geometry" />
          </mxCell>
        </UserObject>
        <UserObject label="salih olmayan bir amel sahibi, senin alienden değildir" tooltip="" id="1IvObFpdUJ6TvMwDu36v-53">
          <mxCell style="text;strokeColor=none;fillColor=none;html=1;align=center;verticalAlign=middle;whiteSpace=wrap;rounded=0;fontSize=20;fontFamily=Architects Daughter;fontSource=https%3A%2F%2Ffonts.googleapis.com%2Fcss%3Ffamily%3DArchitects%2BDaughter;" vertex="1" parent="Sk5A0OWVfIpNJf4I5SIx-1">
            <mxGeometry x="-880" y="810" width="260" height="60" as="geometry" />
          </mxCell>
        </UserObject>
        <UserObject label="seni bilmediğin bir şeyi istemekten sakındırırım" tooltip="" id="1IvObFpdUJ6TvMwDu36v-54">
          <mxCell style="text;strokeColor=none;fillColor=none;html=1;align=center;verticalAlign=middle;whiteSpace=wrap;rounded=0;fontSize=20;fontFamily=Architects Daughter;fontSource=https%3A%2F%2Ffonts.googleapis.com%2Fcss%3Ffamily%3DArchitects%2BDaughter;" vertex="1" parent="Sk5A0OWVfIpNJf4I5SIx-1">
            <mxGeometry x="-1190" y="810" width="260" height="60" as="geometry" />
          </mxCell>
        </UserObject>
        <UserObject label="oki, istemiyorum" tooltip="" id="1IvObFpdUJ6TvMwDu36v-55">
          <mxCell style="text;strokeColor=none;fillColor=none;html=1;align=center;verticalAlign=middle;whiteSpace=wrap;rounded=0;fontSize=20;fontFamily=Architects Daughter;fontSource=https%3A%2F%2Ffonts.googleapis.com%2Fcss%3Ffamily%3DArchitects%2BDaughter;" vertex="1" parent="Sk5A0OWVfIpNJf4I5SIx-1">
            <mxGeometry x="-1430" y="810" width="170" height="60" as="geometry" />
          </mxCell>
        </UserObject>
      </root>
    </mxGraphModel>
  </diagram>
</mxfile>
